<svg xmlns="http://www.w3.org/2000/svg" width="1440" height="900"><path d="M646,447L632,347L572,406Z" fill="#93d5bd" stroke="#93d5bd" stroke-width="1.51"/><path d="M632,347L566,373L572,406Z" fill="#9cd7ba" stroke="#9cd7ba" stroke-width="1.51"/><path d="M577,585L659,557L646,447Z" fill="#7cc7c6" stroke="#7cc7c6" stroke-width="1.51"/><path d="M632,347L563,243L566,373Z" fill="#a5dcb8" stroke="#a5dcb8" stroke-width="1.51"/><path d="M805,420L771,309L646,447Z" fill="#86cfc1" stroke="#86cfc1" stroke-width="1.51"/><path d="M646,447L771,309L632,347Z" fill="#91d3bd" stroke="#91d3bd" stroke-width="1.51"/><path d="M632,347L638,213L563,243Z" fill="#abdebd" stroke="#abdebd" stroke-width="1.51"/><path d="M659,557L805,420L646,447Z" fill="#7acac5" stroke="#7acac5" stroke-width="1.51"/><path d="M738,217L638,213L632,347Z" fill="#a6dcc0" stroke="#a6dcc0" stroke-width="1.51"/><path d="M572,406L577,585L646,447Z" fill="#87cec1" stroke="#87cec1" stroke-width="1.51"/><path d="M403,469L577,585L572,406Z" fill="#91d1c0" stroke="#91d1c0" stroke-width="1.51"/><path d="M566,373L436,322L572,406Z" fill="#a4dbb8" stroke="#a4dbb8" stroke-width="1.51"/><path d="M563,243L436,322L566,373Z" fill="#aedfb8" stroke="#aedfb8" stroke-width="1.51"/><path d="M771,309L738,217L632,347Z" fill="#9cd8c0" stroke="#9cd8c0" stroke-width="1.51"/><path d="M436,322L403,469L572,406Z" fill="#a4dbbc" stroke="#a4dbbc" stroke-width="1.51"/><path d="M436,322L341,356L403,469Z" fill="#afdfbf" stroke="#afdfbf" stroke-width="1.51"/><path d="M563,243L441,229L436,322Z" fill="#bae4bc" stroke="#bae4bc" stroke-width="1.51"/><path d="M459,91L441,229L563,243Z" fill="#c3e8c3" stroke="#c3e8c3" stroke-width="1.51"/><path d="M577,585L637,651L659,557Z" fill="#72bec4" stroke="#72bec4" stroke-width="1.51"/><path d="M659,557L812,603L805,420Z" fill="#6ac1cb" stroke="#6ac1cb" stroke-width="1.51"/><path d="M570,668L637,651L577,585Z" fill="#73b8c1" stroke="#73b8c1" stroke-width="1.51"/><path d="M403,469L471,603L577,585Z" fill="#8acbc7" stroke="#8acbc7" stroke-width="1.51"/><path d="M738,217L677,143L638,213Z" fill="#addec7" stroke="#addec7" stroke-width="1.51"/><path d="M638,213L587,105L563,243Z" fill="#b7e3c3" stroke="#b7e3c3" stroke-width="1.51"/><path d="M471,603L570,668L577,585Z" fill="#7dbdc0" stroke="#7dbdc0" stroke-width="1.51"/><path d="M757,648L812,603L659,557Z" fill="#60b7c9" stroke="#60b7c9" stroke-width="1.51"/><path d="M637,651L757,648L659,557Z" fill="#67b7c5" stroke="#67b7c5" stroke-width="1.51"/><path d="M619,772L757,648L637,651Z" fill="#62abbf" stroke="#62abbf" stroke-width="1.51"/><path d="M441,229L341,356L436,322Z" fill="#bbe4bd" stroke="#bbe4bd" stroke-width="1.51"/><path d="M403,469L295,582L471,603Z" fill="#95cfcb" stroke="#95cfcb" stroke-width="1.51"/><path d="M341,356L334,435L403,469Z" fill="#abddc3" stroke="#abddc3" stroke-width="1.51"/><path d="M677,143L587,105L638,213Z" fill="#b6e2c8" stroke="#b6e2c8" stroke-width="1.51"/><path d="M771,309L877,214L738,217Z" fill="#9cd4c6" stroke="#9cd4c6" stroke-width="1.51"/><path d="M738,217L820,96L677,143Z" fill="#aadccd" stroke="#aadccd" stroke-width="1.51"/><path d="M677,143L681,8L587,105Z" fill="#bbe4cf" stroke="#bbe4cf" stroke-width="1.51"/><path d="M934,343L877,214L771,309Z" fill="#8fcdc6" stroke="#8fcdc6" stroke-width="1.51"/><path d="M934,343L771,309L805,420Z" fill="#85cbc3" stroke="#85cbc3" stroke-width="1.51"/><path d="M934,482L934,343L805,420Z" fill="#71c2c9" stroke="#71c2c9" stroke-width="1.51"/><path d="M812,603L934,482L805,420Z" fill="#63bdcd" stroke="#63bdcd" stroke-width="1.51"/><path d="M570,668L619,772L637,651Z" fill="#6bacbb" stroke="#6bacbb" stroke-width="1.51"/><path d="M471,603L472,690L570,668Z" fill="#7db8be" stroke="#7db8be" stroke-width="1.51"/><path d="M347,703L472,690L471,603Z" fill="#84b9c0" stroke="#84b9c0" stroke-width="1.51"/><path d="M812,603L935,548L934,482Z" fill="#54b5d2" stroke="#54b5d2" stroke-width="1.51"/><path d="M1018,436L1004,312L934,343Z" fill="#77bcc2" stroke="#77bcc2" stroke-width="1.51"/><path d="M902,673L935,548L812,603Z" fill="#4aaccf" stroke="#4aaccf" stroke-width="1.51"/><path d="M587,105L459,91L563,243Z" fill="#c2e7c4" stroke="#c2e7c4" stroke-width="1.51"/><path d="M441,229L300,180L341,356Z" fill="#c8e9c3" stroke="#c8e9c3" stroke-width="1.51"/><path d="M877,214L820,96L738,217Z" fill="#a3d7ce" stroke="#a3d7ce" stroke-width="1.51"/><path d="M587,105L581,-3L459,91Z" fill="#c9eacc" stroke="#c9eacc" stroke-width="1.51"/><path d="M877,214L852,105L820,96Z" fill="#a2d5d3" stroke="#a2d5d3" stroke-width="1.51"/><path d="M975,70L852,105L877,214Z" fill="#9fd2d6" stroke="#9fd2d6" stroke-width="1.51"/><path d="M536,771L619,772L570,668Z" fill="#6da7b7" stroke="#6da7b7" stroke-width="1.51"/><path d="M757,648L902,673L812,603Z" fill="#50aac9" stroke="#50aac9" stroke-width="1.51"/><path d="M334,435L295,582L403,469Z" fill="#a1d7c9" stroke="#a1d7c9" stroke-width="1.51"/><path d="M190,432L295,582L334,435Z" fill="#a7dacd" stroke="#a7dacd" stroke-width="1.51"/><path d="M472,690L536,771L570,668Z" fill="#76aeb8" stroke="#76aeb8" stroke-width="1.51"/><path d="M422,808L536,771L472,690Z" fill="#78a8b7" stroke="#78a8b7" stroke-width="1.51"/><path d="M934,343L989,244L877,214Z" fill="#8dc8c8" stroke="#8dc8c8" stroke-width="1.51"/><path d="M1018,436L934,343L934,482Z" fill="#6bbac6" stroke="#6bbac6" stroke-width="1.51"/><path d="M935,548L977,571L934,482Z" fill="#52b0ce" stroke="#52b0ce" stroke-width="1.51"/><path d="M780,795L902,673L757,648Z" fill="#4ba0c3" stroke="#4ba0c3" stroke-width="1.51"/><path d="M459,91L300,180L441,229Z" fill="#cdecc8" stroke="#cdecc8" stroke-width="1.51"/><path d="M341,356L190,432L334,435Z" fill="#b2e0c6" stroke="#b2e0c6" stroke-width="1.51"/><path d="M902,673L977,571L935,548Z" fill="#46a9cd" stroke="#46a9cd" stroke-width="1.51"/><path d="M820,96L681,8L677,143Z" fill="#b3e0d3" stroke="#b3e0d3" stroke-width="1.51"/><path d="M811,-52L681,8L820,96Z" fill="#b5e0da" stroke="#b5e0da" stroke-width="1.51"/><path d="M977,571L1018,436L934,482Z" fill="#58b2ca" stroke="#58b2ca" stroke-width="1.51"/><path d="M1004,312L989,244L934,343Z" fill="#84c1c3" stroke="#84c1c3" stroke-width="1.51"/><path d="M681,8L581,-3L587,105Z" fill="#c4e8d2" stroke="#c4e8d2" stroke-width="1.51"/><path d="M459,91L336,61L300,180Z" fill="#d6efd0" stroke="#d6efd0" stroke-width="1.51"/><path d="M295,582L347,703L471,603Z" fill="#8ec2c6" stroke="#8ec2c6" stroke-width="1.51"/><path d="M619,772L780,795L757,648Z" fill="#56a1bd" stroke="#56a1bd" stroke-width="1.51"/><path d="M650,912L780,795L619,772Z" fill="#5792b0" stroke="#5792b0" stroke-width="1.51"/><path d="M182,307L190,432L341,356Z" fill="#bce5c6" stroke="#bce5c6" stroke-width="1.51"/><path d="M295,582L275,753L347,703Z" fill="#8cbac5" stroke="#8cbac5" stroke-width="1.51"/><path d="M1122,526L1104,443L1018,436Z" fill="#56a9c3" stroke="#56a9c3" stroke-width="1.51"/><path d="M902,673L974,669L977,571Z" fill="#3fa0c9" stroke="#3fa0c9" stroke-width="1.51"/><path d="M998,752L974,669L902,673Z" fill="#3695c3" stroke="#3695c3" stroke-width="1.51"/><path d="M211,206L182,307L341,356Z" fill="#c8eac7" stroke="#c8eac7" stroke-width="1.51"/><path d="M359,-1L336,61L459,91Z" fill="#daf1d5" stroke="#daf1d5" stroke-width="1.51"/><path d="M211,206L341,356L300,180Z" fill="#cdebc8" stroke="#cdebc8" stroke-width="1.51"/><path d="M581,-3L474,-31L459,91Z" fill="#d1edd2" stroke="#d1edd2" stroke-width="1.51"/><path d="M506,-139L474,-31L581,-3Z" fill="#d2eed3" stroke="#d2eed3" stroke-width="1.51"/><path d="M177,77L211,206L300,180Z" fill="#daf1d4" stroke="#daf1d4" stroke-width="1.51"/><path d="M536,771L589,908L619,772Z" fill="#6898ae" stroke="#6898ae" stroke-width="1.51"/><path d="M347,703L422,808L472,690Z" fill="#80aebc" stroke="#80aebc" stroke-width="1.51"/><path d="M975,70L851,-15L852,105Z" fill="#a7d6dc" stroke="#a7d6dc" stroke-width="1.51"/><path d="M852,105L851,-15L820,96Z" fill="#aad9d9" stroke="#aad9d9" stroke-width="1.51"/><path d="M681,8L672,-123L581,-3Z" fill="#c4e8d7" stroke="#c4e8d7" stroke-width="1.51"/><path d="M474,-31L359,-1L459,91Z" fill="#d9f0d5" stroke="#d9f0d5" stroke-width="1.51"/><path d="M336,61L177,77L300,180Z" fill="#dcf2d6" stroke="#dcf2d6" stroke-width="1.51"/><path d="M989,244L975,70L877,214Z" fill="#98cbcf" stroke="#98cbcf" stroke-width="1.51"/><path d="M1082,189L975,70L989,244Z" fill="#93c3cc" stroke="#93c3cc" stroke-width="1.51"/><path d="M1018,436L1112,358L1004,312Z" fill="#72b5be" stroke="#72b5be" stroke-width="1.51"/><path d="M1004,312L1082,189L989,244Z" fill="#8abfc4" stroke="#8abfc4" stroke-width="1.51"/><path d="M1122,526L1018,436L977,571Z" fill="#4fa9c8" stroke="#4fa9c8" stroke-width="1.51"/><path d="M851,-15L811,-52L820,96Z" fill="#b1dcde" stroke="#b1dcde" stroke-width="1.51"/><path d="M785,-86L811,-52L886,-100Z" fill="#b2dcdf" stroke="#b2dcdf" stroke-width="1.51"/><path d="M1104,443L1112,358L1018,436Z" fill="#64aebf" stroke="#64aebf" stroke-width="1.51"/><path d="M780,795L902,807L902,673Z" fill="#3f94c1" stroke="#3f94c1" stroke-width="1.51"/><path d="M1100,716L1122,526L977,571Z" fill="#3999c6" stroke="#3999c6" stroke-width="1.51"/><path d="M793,920L902,807L780,795Z" fill="#4287b2" stroke="#4287b2" stroke-width="1.51"/><path d="M347,703L275,753L422,808Z" fill="#85acbd" stroke="#85acbd" stroke-width="1.51"/><path d="M171,718L275,753L295,582Z" fill="#90bbc9" stroke="#90bbc9" stroke-width="1.51"/><path d="M50,534L167,603L190,432Z" fill="#a9d8d7" stroke="#a9d8d7" stroke-width="1.51"/><path d="M190,432L167,603L295,582Z" fill="#a2d4d3" stroke="#a2d4d3" stroke-width="1.51"/><path d="M1112,358L1082,189L1004,312Z" fill="#81b8bf" stroke="#81b8bf" stroke-width="1.51"/><path d="M422,808L589,908L536,771Z" fill="#6f99ab" stroke="#6f99ab" stroke-width="1.51"/><path d="M397,879L589,908L422,808Z" fill="#7193a6" stroke="#7193a6" stroke-width="1.51"/><path d="M811,-52L785,-86L681,8Z" fill="#b8e1db" stroke="#b8e1db" stroke-width="1.51"/><path d="M886,-100L811,-52L851,-15Z" fill="#b0dbe0" stroke="#b0dbe0" stroke-width="1.51"/><path d="M589,908L650,912L619,772Z" fill="#5f8da6" stroke="#5f8da6" stroke-width="1.51"/><path d="M1275,291L1205,212L1112,358Z" fill="#7aa9b8" stroke="#7aa9b8" stroke-width="1.51"/><path d="M1100,716L977,571L974,669Z" fill="#3696c3" stroke="#3696c3" stroke-width="1.51"/><path d="M902,807L998,752L902,673Z" fill="#3590c1" stroke="#3590c1" stroke-width="1.51"/><path d="M182,307L105,378L190,432Z" fill="#c0e6cb" stroke="#c0e6cb" stroke-width="1.51"/><path d="M85,177L105,378L182,307Z" fill="#d0edcf" stroke="#d0edcf" stroke-width="1.51"/><path d="M785,-86L672,-123L681,8Z" fill="#bce5d9" stroke="#bce5d9" stroke-width="1.51"/><path d="M474,-31L337,-95L359,-1Z" fill="#dff3d9" stroke="#dff3d9" stroke-width="1.51"/><path d="M339,900L397,879L422,808Z" fill="#7a97aa" stroke="#7a97aa" stroke-width="1.51"/><path d="M902,807L1023,892L998,752Z" fill="#2c7fb5" stroke="#2c7fb5" stroke-width="1.51"/><path d="M650,912L793,920L780,795Z" fill="#4c86a8" stroke="#4c86a8" stroke-width="1.51"/><path d="M672,-123L506,-139L581,-3Z" fill="#cbebd4" stroke="#cbebd4" stroke-width="1.51"/><path d="M211,206L85,177L182,307Z" fill="#d7efd0" stroke="#d7efd0" stroke-width="1.51"/><path d="M193,-17L177,77L336,61Z" fill="#e5f5de" stroke="#e5f5de" stroke-width="1.51"/><path d="M193,-17L336,61L359,-1Z" fill="#e4f5dd" stroke="#e4f5dd" stroke-width="1.51"/><path d="M275,753L339,900L422,808Z" fill="#80a0b4" stroke="#80a0b4" stroke-width="1.51"/><path d="M167,603L171,718L295,582Z" fill="#97c5cf" stroke="#97c5cf" stroke-width="1.51"/><path d="M109,672L171,718L167,603Z" fill="#97c1d0" stroke="#97c1d0" stroke-width="1.51"/><path d="M975,70L977,-39L851,-15Z" fill="#a9d3df" stroke="#a9d3df" stroke-width="1.51"/><path d="M785,-86L886,-100L672,-123Z" fill="#b6dfdc" stroke="#b6dfdc" stroke-width="1.51"/><path d="M1113,-8L977,-39L975,70Z" fill="#a2c8da" stroke="#a2c8da" stroke-width="1.51"/><path d="M977,-39L886,-100L851,-15Z" fill="#abd7e1" stroke="#abd7e1" stroke-width="1.51"/><path d="M105,378L59,451L190,432Z" fill="#b9e3d1" stroke="#b9e3d1" stroke-width="1.51"/><path d="M9,369L59,451L105,378Z" fill="#c2e7d3" stroke="#c2e7d3" stroke-width="1.51"/><path d="M460,-155L337,-95L474,-31Z" fill="#dbf1d7" stroke="#dbf1d7" stroke-width="1.51"/><path d="M998,752L1100,716L974,669Z" fill="#2e8cbe" stroke="#2e8cbe" stroke-width="1.51"/><path d="M1092,835L1100,716L998,752Z" fill="#237fb8" stroke="#237fb8" stroke-width="1.51"/><path d="M554,1001L671,997L589,908Z" fill="#5f879f" stroke="#5f879f" stroke-width="1.51"/><path d="M589,908L671,997L650,912Z" fill="#5a86a0" stroke="#5a86a0" stroke-width="1.51"/><path d="M650,912L671,997L793,920Z" fill="#5083a2" stroke="#5083a2" stroke-width="1.51"/><path d="M203,903L339,900L275,753Z" fill="#819cb2" stroke="#819cb2" stroke-width="1.51"/><path d="M506,-139L460,-155L474,-31Z" fill="#d6efd5" stroke="#d6efd5" stroke-width="1.51"/><path d="M672,-123L460,-155L506,-139Z" fill="#cfecd3" stroke="#cfecd3" stroke-width="1.51"/><path d="M1201,-160L460,-155L672,-123Z" fill="#b7e0dc" stroke="#b7e0dc" stroke-width="1.51"/><path d="M171,718L180,780L275,753Z" fill="#8cb0c5" stroke="#8cb0c5" stroke-width="1.51"/><path d="M50,534L109,672L167,603Z" fill="#a0cdd7" stroke="#a0cdd7" stroke-width="1.51"/><path d="M177,77L85,177L211,206Z" fill="#def2d8" stroke="#def2d8" stroke-width="1.51"/><path d="M57,785L180,780L171,718Z" fill="#90b0c9" stroke="#90b0c9" stroke-width="1.51"/><path d="M59,451L50,534L190,432Z" fill="#b2dfd5" stroke="#b2dfd5" stroke-width="1.51"/><path d="M-12,468L50,534L59,451Z" fill="#b5dfda" stroke="#b5dfda" stroke-width="1.51"/><path d="M337,-95L193,-17L359,-1Z" fill="#e5f5de" stroke="#e5f5de" stroke-width="1.51"/><path d="M177,77L76,70L85,177Z" fill="#e5f5df" stroke="#e5f5df" stroke-width="1.51"/><path d="M554,1001L589,908L397,879Z" fill="#6a8b9d" stroke="#6a8b9d" stroke-width="1.51"/><path d="M793,920L916,929L902,807Z" fill="#387cab" stroke="#387cab" stroke-width="1.51"/><path d="M862,1016L916,929L793,920Z" fill="#3a7aa8" stroke="#3a7aa8" stroke-width="1.51"/><path d="M398,1009L554,1001L397,879Z" fill="#718da0" stroke="#718da0" stroke-width="1.51"/><path d="M1112,358L1205,212L1082,189Z" fill="#83b3be" stroke="#83b3be" stroke-width="1.51"/><path d="M1082,189L1150,83L975,70Z" fill="#94bfce" stroke="#94bfce" stroke-width="1.51"/><path d="M1280,412L1112,358L1104,443Z" fill="#63a6ba" stroke="#63a6ba" stroke-width="1.51"/><path d="M1280,412L1104,443L1122,526Z" fill="#55a1bd" stroke="#55a1bd" stroke-width="1.51"/><path d="M1205,212L1150,83L1082,189Z" fill="#8cb5c5" stroke="#8cb5c5" stroke-width="1.51"/><path d="M85,177L9,369L105,378Z" fill="#d1edd0" stroke="#d1edd0" stroke-width="1.51"/><path d="M554,1001L747,1011L671,997Z" fill="#5785a1" stroke="#5785a1" stroke-width="1.51"/><path d="M671,997L747,1011L793,920Z" fill="#4c82a3" stroke="#4c82a3" stroke-width="1.51"/><path d="M973,1058L1023,892L916,929Z" fill="#2b70a5" stroke="#2b70a5" stroke-width="1.51"/><path d="M916,929L1023,892L902,807Z" fill="#2e77ac" stroke="#2e77ac" stroke-width="1.51"/><path d="M1150,83L1113,-8L975,70Z" fill="#9ac0d3" stroke="#9ac0d3" stroke-width="1.51"/><path d="M977,-39L1048,-130L886,-100Z" fill="#a7cfde" stroke="#a7cfde" stroke-width="1.51"/><path d="M1212,8L1113,-8L1150,83Z" fill="#98b9d1" stroke="#98b9d1" stroke-width="1.51"/><path d="M85,177L-13,184L9,369Z" fill="#ddf2d7" stroke="#ddf2d7" stroke-width="1.51"/><path d="M193,-17L76,70L177,77Z" fill="#e9f7e3" stroke="#e9f7e3" stroke-width="1.51"/><path d="M1023,892L1092,835L998,752Z" fill="#2477b0" stroke="#2477b0" stroke-width="1.51"/><path d="M1100,716L1202,692L1122,526Z" fill="#2d8bbe" stroke="#2d8bbe" stroke-width="1.51"/><path d="M50,534L-14,567L109,672Z" fill="#a6d1dc" stroke="#a6d1dc" stroke-width="1.51"/><path d="M9,369L-12,468L59,451Z" fill="#bee5d7" stroke="#bee5d7" stroke-width="1.51"/><path d="M1092,835L1202,692L1100,716Z" fill="#1f7bb6" stroke="#1f7bb6" stroke-width="1.51"/><path d="M339,900L398,1009L397,879Z" fill="#7790a3" stroke="#7790a3" stroke-width="1.51"/><path d="M554,1001L973,1058L747,1011Z" fill="#4980a4" stroke="#4980a4" stroke-width="1.51"/><path d="M351,1015L398,1009L339,900Z" fill="#7990a4" stroke="#7990a4" stroke-width="1.51"/><path d="M1274,538L1280,412L1122,526Z" fill="#4b98bd" stroke="#4b98bd" stroke-width="1.51"/><path d="M180,780L203,903L275,753Z" fill="#87a4bd" stroke="#87a4bd" stroke-width="1.51"/><path d="M57,785L203,903L180,780Z" fill="#8aa4bf" stroke="#8aa4bf" stroke-width="1.51"/><path d="M57,785L171,718L109,672Z" fill="#94b7cd" stroke="#94b7cd" stroke-width="1.51"/><path d="M1205,212L1234,143L1150,83Z" fill="#8bb1c4" stroke="#8bb1c4" stroke-width="1.51"/><path d="M1280,412L1275,291L1112,358Z" fill="#6da3b5" stroke="#6da3b5" stroke-width="1.51"/><path d="M-12,468L-14,567L50,534Z" fill="#b1dcdf" stroke="#b1dcdf" stroke-width="1.51"/><path d="M747,1011L862,1016L793,920Z" fill="#437ea6" stroke="#437ea6" stroke-width="1.51"/><path d="M973,1058L862,1016L747,1011Z" fill="#3979a8" stroke="#3979a8" stroke-width="1.51"/><path d="M1275,291L1234,143L1205,212Z" fill="#84a9bc" stroke="#84a9bc" stroke-width="1.51"/><path d="M1202,692L1274,538L1122,526Z" fill="#348fc1" stroke="#348fc1" stroke-width="1.51"/><path d="M337,-95L227,-139L193,-17Z" fill="#e8f6e1" stroke="#e8f6e1" stroke-width="1.51"/><path d="M193,-17L79,-47L76,70Z" fill="#f0f9e9" stroke="#f0f9e9" stroke-width="1.51"/><path d="M460,-155L227,-139L337,-95Z" fill="#e3f4db" stroke="#e3f4db" stroke-width="1.51"/><path d="M9,369L-121,410L-12,468Z" fill="#c2e7d8" stroke="#c2e7d8" stroke-width="1.51"/><path d="M-125,554L-49,637L-14,567Z" fill="#a9d3e0" stroke="#a9d3e0" stroke-width="1.51"/><path d="M-19,100L-13,184L85,177Z" fill="#e7f6e0" stroke="#e7f6e0" stroke-width="1.51"/><path d="M-19,100L85,177L76,70Z" fill="#e8f7e2" stroke="#e8f7e2" stroke-width="1.51"/><path d="M398,1009L351,1015L554,1001Z" fill="#728ea1" stroke="#728ea1" stroke-width="1.51"/><path d="M203,903L351,1015L339,900Z" fill="#7c92a8" stroke="#7c92a8" stroke-width="1.51"/><path d="M1119,-92L1048,-130L1113,-8Z" fill="#9ec1d7" stroke="#9ec1d7" stroke-width="1.51"/><path d="M1113,-8L1048,-130L977,-39Z" fill="#a1c6d9" stroke="#a1c6d9" stroke-width="1.51"/><path d="M886,-100L1048,-130L672,-123Z" fill="#afd9e0" stroke="#afd9e0" stroke-width="1.51"/><path d="M-49,637L57,785L109,672Z" fill="#9bbed3" stroke="#9bbed3" stroke-width="1.51"/><path d="M1212,8L1119,-92L1113,-8Z" fill="#9cbbd4" stroke="#9cbbd4" stroke-width="1.51"/><path d="M1275,291L1379,195L1234,143Z" fill="#82a3b7" stroke="#82a3b7" stroke-width="1.51"/><path d="M1234,143L1212,8L1150,83Z" fill="#91b2ca" stroke="#91b2ca" stroke-width="1.51"/><path d="M1280,412L1315,300L1275,291Z" fill="#6e9cae" stroke="#6e9cae" stroke-width="1.51"/><path d="M1457,416L1315,300L1280,412Z" fill="#6393a9" stroke="#6393a9" stroke-width="1.51"/><path d="M227,-139L79,-47L193,-17Z" fill="#edf8e6" stroke="#edf8e6" stroke-width="1.51"/><path d="M1390,108L1212,8L1234,143Z" fill="#8ca9c4" stroke="#8ca9c4" stroke-width="1.51"/><path d="M1341,534L1347,485L1274,538Z" fill="#418ab5" stroke="#418ab5" stroke-width="1.51"/><path d="M1092,835L1276,767L1202,692Z" fill="#1772b2" stroke="#1772b2" stroke-width="1.51"/><path d="M1023,892L1138,888L1092,835Z" fill="#1d6aa5" stroke="#1d6aa5" stroke-width="1.51"/><path d="M1095,1026L1138,888L1023,892Z" fill="#1d649f" stroke="#1d649f" stroke-width="1.51"/><path d="M-55,-47L-19,100L76,70Z" fill="#f3fbec" stroke="#f3fbec" stroke-width="1.51"/><path d="M-125,554L-14,567L-12,468Z" fill="#b1dbe0" stroke="#b1dbe0" stroke-width="1.51"/><path d="M-14,567L-49,637L109,672Z" fill="#a4cbdb" stroke="#a4cbdb" stroke-width="1.51"/><path d="M-121,410L9,369L-117,225Z" fill="#d0edd2" stroke="#d0edd2" stroke-width="1.51"/><path d="M1274,538L1347,485L1280,412Z" fill="#4c91b5" stroke="#4c91b5" stroke-width="1.51"/><path d="M1341,534L1274,538L1343,717Z" fill="#2e80b5" stroke="#2e80b5" stroke-width="1.51"/><path d="M1343,717L1274,538L1202,692Z" fill="#247db6" stroke="#247db6" stroke-width="1.51"/><path d="M-117,225L9,369L-13,184Z" fill="#dcf2d8" stroke="#dcf2d8" stroke-width="1.51"/><path d="M862,1016L973,1058L916,929Z" fill="#3175a8" stroke="#3175a8" stroke-width="1.51"/><path d="M351,1015L973,1058L554,1001Z" fill="#5c879f" stroke="#5c879f" stroke-width="1.51"/><path d="M1138,888L1276,767L1092,835Z" fill="#1669a8" stroke="#1669a8" stroke-width="1.51"/><path d="M1317,784L1276,767L1233,938Z" fill="#095ea2" stroke="#095ea2" stroke-width="1.51"/><path d="M-130,136L-117,225L-13,184Z" fill="#e6f5de" stroke="#e6f5de" stroke-width="1.51"/><path d="M-130,136L-13,184L-19,100Z" fill="#e9f7e3" stroke="#e9f7e3" stroke-width="1.51"/><path d="M-121,410L-125,554L-12,468Z" fill="#b8e1dc" stroke="#b8e1dc" stroke-width="1.51"/><path d="M-19,927L75,948L57,785Z" fill="#8b9ab9" stroke="#8b9ab9" stroke-width="1.51"/><path d="M-177,359L-125,554L-121,410Z" fill="#bde5d9" stroke="#bde5d9" stroke-width="1.51"/><path d="M351,1015L50,1059L973,1058Z" fill="#708da0" stroke="#708da0" stroke-width="1.51"/><path d="M203,903L184,1027L351,1015Z" fill="#7f92ab" stroke="#7f92ab" stroke-width="1.51"/><path d="M75,948L184,1027L203,903Z" fill="#8494b0" stroke="#8494b0" stroke-width="1.51"/><path d="M75,948L203,903L57,785Z" fill="#8899b6" stroke="#8899b6" stroke-width="1.51"/><path d="M79,-47L-55,-47L76,70Z" fill="#f5fbee" stroke="#f5fbee" stroke-width="1.51"/><path d="M227,-139L60,-134L79,-47Z" fill="#eff9e9" stroke="#eff9e9" stroke-width="1.51"/><path d="M-13,-166L60,-134L227,-139Z" fill="#f1faea" stroke="#f1faea" stroke-width="1.51"/><path d="M-42,810L57,785L-49,637Z" fill="#99b6d2" stroke="#99b6d2" stroke-width="1.51"/><path d="M1315,300L1379,195L1275,291Z" fill="#799db0" stroke="#799db0" stroke-width="1.51"/><path d="M1430,252L1379,195L1315,300Z" fill="#7897aa" stroke="#7897aa" stroke-width="1.51"/><path d="M-170,709L-42,810L-49,637Z" fill="#9bbbd4" stroke="#9bbbd4" stroke-width="1.51"/><path d="M973,1058L1095,1026L1023,892Z" fill="#246aa2" stroke="#246aa2" stroke-width="1.51"/><path d="M1317,784L1343,717L1276,767Z" fill="#1167a8" stroke="#1167a8" stroke-width="1.51"/><path d="M1276,767L1343,717L1202,692Z" fill="#1770af" stroke="#1770af" stroke-width="1.51"/><path d="M1457,416L1280,412L1347,485Z" fill="#548dac" stroke="#548dac" stroke-width="1.51"/><path d="M1457,416L1430,252L1315,300Z" fill="#6c90a2" stroke="#6c90a2" stroke-width="1.51"/><path d="M1233,938L1276,767L1138,888Z" fill="#105e9f" stroke="#105e9f" stroke-width="1.51"/><path d="M-117,225L-177,359L-121,410Z" fill="#d1edd3" stroke="#d1edd3" stroke-width="1.51"/><path d="M-55,-47L-130,136L-19,100Z" fill="#f1faea" stroke="#f1faea" stroke-width="1.51"/><path d="M-130,136L-177,359L-117,225Z" fill="#dff3d9" stroke="#dff3d9" stroke-width="1.51"/><path d="M1212,8L1201,-160L1119,-92Z" fill="#9ab7d2" stroke="#9ab7d2" stroke-width="1.51"/><path d="M1119,-92L1201,-160L1048,-130Z" fill="#9dbdd5" stroke="#9dbdd5" stroke-width="1.51"/><path d="M1048,-130L1201,-160L672,-123Z" fill="#a6cfdd" stroke="#a6cfdd" stroke-width="1.51"/><path d="M1363,-46L1201,-160L1212,8Z" fill="#96afce" stroke="#96afce" stroke-width="1.51"/><path d="M60,-134L-55,-47L79,-47Z" fill="#f5fcee" stroke="#f5fcee" stroke-width="1.51"/><path d="M1095,1026L1233,938L1138,888Z" fill="#175e9b" stroke="#175e9b" stroke-width="1.51"/><path d="M1379,195L1390,108L1234,143Z" fill="#859fb8" stroke="#859fb8" stroke-width="1.51"/><path d="M1457,416L1347,485L1502,563Z" fill="#467fa5" stroke="#467fa5" stroke-width="1.51"/><path d="M1488,80L1390,108L1379,195Z" fill="#8296af" stroke="#8296af" stroke-width="1.51"/><path d="M-42,810L-19,927L57,785Z" fill="#92a4c4" stroke="#92a4c4" stroke-width="1.51"/><path d="M75,948L50,1059L184,1027Z" fill="#8796b3" stroke="#8796b3" stroke-width="1.51"/><path d="M-136,833L-19,927L-42,810Z" fill="#90a1c1" stroke="#90a1c1" stroke-width="1.51"/><path d="M1502,563L1347,485L1341,534Z" fill="#3d80ac" stroke="#3d80ac" stroke-width="1.51"/><path d="M1503,752L1343,717L1317,784Z" fill="#125f9f" stroke="#125f9f" stroke-width="1.51"/><path d="M1503,752L1427,650L1343,717Z" fill="#19629f" stroke="#19629f" stroke-width="1.51"/><path d="M1343,717L1427,650L1341,534Z" fill="#2674ab" stroke="#2674ab" stroke-width="1.51"/><path d="M60,-134L-13,-166L-55,-47Z" fill="#f7fcf0" stroke="#f7fcf0" stroke-width="1.51"/><path d="M-55,-47L-187,-6L-130,136Z" fill="#f4fbed" stroke="#f4fbed" stroke-width="1.51"/><path d="M460,-155L-13,-166L227,-139Z" fill="#e9f7e3" stroke="#e9f7e3" stroke-width="1.51"/><path d="M1201,-160L-13,-166L460,-155Z" fill="#cfecd3" stroke="#cfecd3" stroke-width="1.51"/><path d="M-125,554L-170,709L-49,637Z" fill="#a4cadb" stroke="#a4cadb" stroke-width="1.51"/><path d="M-177,359L-170,709L-125,554Z" fill="#afdae0" stroke="#afdae0" stroke-width="1.51"/><path d="M1488,80L1363,-46L1390,108Z" fill="#899ab7" stroke="#899ab7" stroke-width="1.51"/><path d="M1390,108L1363,-46L1212,8Z" fill="#90a6c5" stroke="#90a6c5" stroke-width="1.51"/><path d="M-19,927L50,1059L75,948Z" fill="#8a97b6" stroke="#8a97b6" stroke-width="1.51"/><path d="M184,1027L50,1059L351,1015Z" fill="#8193ad" stroke="#8193ad" stroke-width="1.51"/><path d="M-50,1052L50,1059L-19,927Z" fill="#8d98b8" stroke="#8d98b8" stroke-width="1.51"/><path d="M-170,709L-136,833L-42,810Z" fill="#96afcf" stroke="#96afcf" stroke-width="1.51"/><path d="M1430,252L1488,80L1379,195Z" fill="#7e93aa" stroke="#7e93aa" stroke-width="1.51"/><path d="M1457,416L1511,306L1430,252Z" fill="#6a8b9d" stroke="#6a8b9d" stroke-width="1.51"/><path d="M1555,368L1511,306L1457,416Z" fill="#62889e" stroke="#62889e" stroke-width="1.51"/><path d="M1427,650L1502,563L1341,534Z" fill="#2f76aa" stroke="#2f76aa" stroke-width="1.51"/><path d="M1594,647L1502,563L1427,650Z" fill="#296ea4" stroke="#296ea4" stroke-width="1.51"/><path d="M1233,938L1339,937L1317,784Z" fill="#0a5294" stroke="#0a5294" stroke-width="1.51"/><path d="M1279,1048L1339,937L1233,938Z" fill="#0a5193" stroke="#0a5193" stroke-width="1.51"/><path d="M-174,-143L-187,-6L-55,-47Z" fill="#f7fcf0" stroke="#f7fcf0" stroke-width="1.51"/><path d="M-130,136L-187,-6L-177,359Z" fill="#e7f6e0" stroke="#e7f6e0" stroke-width="1.51"/><path d="M-177,359L-187,-6L-170,709Z" fill="#cdebd3" stroke="#cdebd3" stroke-width="1.51"/><path d="M1542,77L1488,80L1600,241Z" fill="#8093ac" stroke="#8093ac" stroke-width="1.51"/><path d="M1095,1026L1279,1048L1233,938Z" fill="#125999" stroke="#125999" stroke-width="1.51"/><path d="M973,1058L1279,1048L1095,1026Z" fill="#1b629d" stroke="#1b629d" stroke-width="1.51"/><path d="M1363,-46L1395,-114L1201,-160Z" fill="#93a7c7" stroke="#93a7c7" stroke-width="1.51"/><path d="M1477,-51L1395,-114L1363,-46Z" fill="#8e9bbc" stroke="#8e9bbc" stroke-width="1.51"/><path d="M1564,459L1555,368L1457,416Z" fill="#5785a1" stroke="#5785a1" stroke-width="1.51"/><path d="M1600,241L1488,80L1430,252Z" fill="#7c91a7" stroke="#7c91a7" stroke-width="1.51"/><path d="M-138,1017L-50,1052L-19,927Z" fill="#8d98b8" stroke="#8d98b8" stroke-width="1.51"/><path d="M1502,563L1564,459L1457,416Z" fill="#487fa4" stroke="#487fa4" stroke-width="1.51"/><path d="M1610,581L1564,459L1502,563Z" fill="#3b7aa8" stroke="#3b7aa8" stroke-width="1.51"/><path d="M1457,870L1503,752L1317,784Z" fill="#095395" stroke="#095395" stroke-width="1.51"/><path d="M1457,870L1317,784L1339,937Z" fill="#094e90" stroke="#094e90" stroke-width="1.51"/><path d="M1380,1006L1457,870L1339,937Z" fill="#094586" stroke="#094586" stroke-width="1.51"/><path d="M-136,833L-166,942L-19,927Z" fill="#8d98b8" stroke="#8d98b8" stroke-width="1.51"/><path d="M-170,709L-166,942L-136,833Z" fill="#93a6c6" stroke="#93a6c6" stroke-width="1.51"/><path d="M-187,-6L-166,942L-170,709Z" fill="#aed9e1" stroke="#aed9e1" stroke-width="1.51"/><path d="M1542,77L1477,-51L1488,80Z" fill="#8a97b5" stroke="#8a97b5" stroke-width="1.51"/><path d="M1488,80L1477,-51L1363,-46Z" fill="#8d98b8" stroke="#8d98b8" stroke-width="1.51"/><path d="M-13,-166L-174,-143L-55,-47Z" fill="#f7fcf0" stroke="#f7fcf0" stroke-width="1.51"/><path d="M1279,1048L1380,1006L1339,937Z" fill="#0a4c8d" stroke="#0a4c8d" stroke-width="1.51"/><path d="M1600,241L1430,252L1511,306Z" fill="#738ea1" stroke="#738ea1" stroke-width="1.51"/><path d="M1600,241L1511,306L1555,368Z" fill="#6d8c9f" stroke="#6d8c9f" stroke-width="1.51"/><path d="M-166,942L-138,1017L-19,927Z" fill="#8d98b8" stroke="#8d98b8" stroke-width="1.51"/><path d="M1564,459L1600,241L1555,368Z" fill="#64899e" stroke="#64899e" stroke-width="1.51"/><path d="M1564,459L1610,581L1600,241Z" fill="#5384a1" stroke="#5384a1" stroke-width="1.51"/><path d="M1503,752L1594,647L1427,650Z" fill="#1c639f" stroke="#1c639f" stroke-width="1.51"/><path d="M1627,787L1594,647L1503,752Z" fill="#165d9b" stroke="#165d9b" stroke-width="1.51"/><path d="M1627,787L1503,752L1616,878Z" fill="#095093" stroke="#095093" stroke-width="1.51"/><path d="M1594,647L1610,581L1502,563Z" fill="#2c72a6" stroke="#2c72a6" stroke-width="1.51"/><path d="M1600,241L1594,26L1542,77Z" fill="#8294ae" stroke="#8294ae" stroke-width="1.51"/><path d="M1542,77L1594,26L1477,-51Z" fill="#8b97b7" stroke="#8b97b7" stroke-width="1.51"/><path d="M1477,-51L1501,-159L1395,-114Z" fill="#8d98b8" stroke="#8d98b8" stroke-width="1.51"/><path d="M1627,787L1594,26L1600,241Z" fill="#65899d" stroke="#65899d" stroke-width="1.51"/><path d="M1567,-157L1501,-159L1477,-51Z" fill="#8d98b8" stroke="#8d98b8" stroke-width="1.51"/><path d="M1395,-114L1501,-159L1201,-160Z" fill="#91a1c2" stroke="#91a1c2" stroke-width="1.51"/><path d="M1201,-160L1501,-159L-13,-166Z" fill="#acd7e2" stroke="#acd7e2" stroke-width="1.51"/><path d="M1610,581L1627,787L1600,241Z" fill="#3a7aa8" stroke="#3a7aa8" stroke-width="1.51"/><path d="M1594,647L1627,787L1610,581Z" fill="#1e65a0" stroke="#1e65a0" stroke-width="1.51"/><path d="M1616,878L1503,752L1457,870Z" fill="#094b8d" stroke="#094b8d" stroke-width="1.51"/><path d="M1380,1006L1545,1001L1457,870Z" fill="#084081" stroke="#084081" stroke-width="1.51"/><path d="M1279,1048L1483,1068L1380,1006Z" fill="#094688" stroke="#094688" stroke-width="1.51"/><path d="M973,1058L1483,1068L1279,1048Z" fill="#0c5597" stroke="#0c5597" stroke-width="1.51"/><path d="M50,1059L1483,1068L973,1058Z" fill="#3e7ba7" stroke="#3e7ba7" stroke-width="1.51"/><path d="M1594,26L1567,-157L1477,-51Z" fill="#8d98b8" stroke="#8d98b8" stroke-width="1.51"/><path d="M1483,1068L1545,1001L1380,1006Z" fill="#084081" stroke="#084081" stroke-width="1.51"/><path d="M1545,1001L1616,878L1457,870Z" fill="#084081" stroke="#084081" stroke-width="1.51"/></svg>